<svg width="16" height="17" viewBox="0 0 16 17" fill="none" xmlns="http://www.w3.org/2000/svg">
<g clip-path="url(#clip0_9666_987)">
<path d="M8.99911 4.60667C9.72578 4.60667 10.3324 3.99334 10.3324 3.27334C10.3324 2.91971 10.192 2.58058 9.94192 2.33053C9.69187 2.08048 9.35274 1.94 8.99911 1.94C8.25911 1.94 7.66578 2.52667 7.66578 3.27334C7.66578 3.99334 8.25911 4.60667 8.99911 4.60667ZM6.59245 13.86L7.25911 10.94L8.66578 12.2733V16.2733H9.99911V11.2733L8.59245 9.94L8.99911 7.94C9.45592 8.46342 10.0195 8.88298 10.6519 9.17045C11.2844 9.45793 11.9711 9.60667 12.6658 9.60667V8.27334C11.3924 8.27334 10.3324 7.60667 9.79245 6.66L9.12578 5.60667C8.85911 5.19334 8.45911 4.94 7.99911 4.94C7.79245 4.94 7.66578 4.99334 7.45911 4.99334L3.99911 6.46V9.60667H5.33245V7.32667L6.52578 6.86L5.45911 12.2733L2.19245 11.6067L1.92578 12.94L6.59245 13.86Z" fill="black"/>
</g>
<defs>
<clipPath id="clip0_9666_987">
<rect width="16" height="16" fill="white" transform="translate(0 0.940002)"/>
</clipPath>
</defs>
</svg>
