<svg width="64" height="56" viewBox="0 0 64 56" fill="none" xmlns="http://www.w3.org/2000/svg">
<mask id="mask0_9691_4547" style="mask-type:luminance" maskUnits="userSpaceOnUse" x="0" y="0" width="64" height="56">
<path d="M0 0.946167H64V55.9462H0V0.946167Z" fill="white"/>
</mask>
<g mask="url(#mask0_9691_4547)">
<path d="M22.4407 17.8508C24.3352 17.8508 25.9168 16.2518 25.9168 14.3747C25.9168 13.4527 25.5506 12.5686 24.8987 11.9167C24.2468 11.2648 23.3626 10.8986 22.4407 10.8986C20.5115 10.8986 18.9646 12.428 18.9646 14.3747C18.9646 16.2518 20.5115 17.8508 22.4407 17.8508ZM16.1664 41.9749L17.9044 34.3622L21.5717 37.8383V48.2667H25.0478V35.2313L21.3805 31.7552L22.4407 26.541C23.6316 27.9056 25.1009 28.9994 26.7498 29.7489C28.3986 30.4984 30.1888 30.8861 32 30.8861V27.41C28.6803 27.41 25.9168 25.672 24.509 23.204L22.7709 20.4578C22.0757 19.3802 21.0329 18.7198 19.8336 18.7198C19.2948 18.7198 18.9646 18.8588 18.4258 18.8588L9.40534 22.6825V30.8861H12.8814V24.942L15.9925 23.7254L13.2117 37.8383L4.69522 36.1003L4 39.5764L16.1664 41.9749Z" fill="#5B5B5B"/>
</g>
</svg>
