<svg width="64" height="61" viewBox="0 0 64 61" fill="none" xmlns="http://www.w3.org/2000/svg">
<g clip-path="url(#clip0_9691_4528)">
<mask id="mask0_9691_4528" style="mask-type:luminance" maskUnits="userSpaceOnUse" x="0" y="-1" width="64" height="62">
<path d="M0 -0.00619507H64V60.9462H0V-0.00619507Z" fill="white"/>
</mask>
<g mask="url(#mask0_9691_4528)">
<path d="M10.7105 18.7487L9.38431 18.034C9.01499 17.8349 8.87427 17.3975 9.05232 17.0257C9.60854 15.8659 10.3479 14.8137 11.2595 13.8861C11.5521 13.5886 12.0292 13.5432 12.3648 13.788L13.5884 14.6802C13.8738 14.8882 14.2731 14.8938 14.5642 14.6858C15.0607 14.3311 15.591 14.0245 16.147 13.7692C16.441 13.6341 16.6157 13.3373 16.6002 13.028L16.514 11.3408C16.495 10.9663 16.7585 10.6304 17.1401 10.5344C18.4557 10.2036 19.829 10.0827 21.1765 10.1788C21.5855 10.2081 21.9072 10.5185 21.9287 10.9092L22.0146 12.4669C22.0328 12.7968 22.2656 13.0816 22.5992 13.1655C22.8973 13.2404 23.1938 13.3301 23.4881 13.4355C23.7644 13.5347 24.0328 13.6452 24.2926 13.7663C24.5927 13.9061 24.9547 13.8461 25.2009 13.6257L26.4516 12.5063C26.7461 12.2427 27.194 12.2204 27.5125 12.4496C28.5849 13.2201 29.5229 14.1677 30.2706 15.2357C30.4947 15.5559 30.4415 15.9878 30.1412 16.2522L28.9058 17.3402C28.652 17.5636 28.5674 17.9133 28.7009 18.2135C28.9541 18.7837 29.1453 19.38 29.2691 19.9924C29.3389 20.3384 29.6457 20.5919 30.0152 20.6108L31.5266 20.6878C31.9556 20.7097 32.2871 21.0447 32.2939 21.4545C32.3155 22.7386 32.1126 24.0077 31.6879 25.2461C31.5673 25.5976 31.2173 25.8325 30.8327 25.8049L28.9971 25.6725C28.685 25.65 28.3779 25.7964 28.2238 26.0584C27.9278 26.5612 27.5863 27.029 27.2054 27.4587C26.9695 27.7253 26.9502 28.107 27.1529 28.3926L28.0134 29.6044C28.2493 29.9368 28.1787 30.3896 27.8512 30.6495C26.8158 31.4716 25.6353 32.1348 24.3793 32.5991C24.0076 32.7364 23.5889 32.6067 23.3833 32.2854L22.4811 30.8758C22.3104 30.6091 21.9865 30.463 21.6619 30.5195C21.069 30.6224 20.4635 30.6705 19.8537 30.6619C19.5022 30.6569 19.1874 30.8758 19.072 31.194L18.5461 32.6469C18.4103 33.0221 18.0033 33.2446 17.5977 33.1675C16.9535 33.0448 16.3181 32.8716 15.7014 32.6506C15.0736 32.4253 14.4664 32.1509 13.889 31.8314C13.5305 31.6329 13.3855 31.2081 13.5545 30.8425L14.1994 29.4475C14.3434 29.1355 14.2613 28.772 13.9931 28.5522C13.4932 28.1425 13.0457 27.686 12.6544 27.1914C12.4395 26.9198 12.0612 26.8189 11.7242 26.9403L10.2384 27.476C9.84556 27.6176 9.40772 27.4549 9.22068 27.1004C8.62558 25.9716 8.22526 24.7453 8.04232 23.4922C7.98502 23.1 8.24322 22.7235 8.64517 22.6173L10.1892 22.2094C10.533 22.1185 10.7794 21.8274 10.7947 21.4884C10.8226 20.8643 10.92 20.2357 11.0919 19.6118C11.185 19.273 11.0278 18.9198 10.7105 18.7487ZM14.4498 24.347C18.6781 30.7517 28.0134 26.7198 25.8761 19.4116C25.853 19.3331 25.8167 19.255 25.7715 19.1863C21.5413 12.786 12.2113 16.8163 14.3455 24.1219C14.3682 24.2005 14.4044 24.2781 14.4498 24.347Z" fill="#F05B0A"/>
<path d="M22.0359 47.8426L21.1779 48.6788C20.9388 48.9117 20.5512 48.9261 20.2831 48.7179C19.4463 48.0679 18.736 47.3042 18.1626 46.4384C17.9785 46.1608 18.0395 45.798 18.3088 45.5994L19.291 44.8757C19.52 44.7067 19.6067 44.4122 19.4959 44.1536C19.3067 43.7131 19.1644 43.2571 19.0692 42.7929C19.0188 42.5473 18.8117 42.3567 18.5548 42.3051L17.1542 42.023C16.8431 41.9605 16.6222 41.6959 16.6218 41.3937C16.6201 40.3509 16.8028 39.3085 17.1579 38.3297C17.2658 38.0327 17.5866 37.858 17.9114 37.9221L19.2052 38.178C19.4793 38.2321 19.7607 38.1183 19.8979 37.8881C20.0203 37.6827 20.1545 37.4811 20.3015 37.2847C20.4396 37.1003 20.5849 36.9242 20.7375 36.7566C20.9136 36.5629 20.9389 36.2824 20.8086 36.0548L20.1477 34.8982C19.9921 34.6261 20.066 34.2895 20.319 34.1005C21.1705 33.464 22.1394 32.9632 23.1681 32.6283C23.4767 32.5279 23.8195 32.6558 23.9747 32.9325L24.6133 34.0714C24.7441 34.3052 25.0138 34.4391 25.2871 34.4021C25.8066 34.3312 26.3343 34.3121 26.8615 34.3459C27.1595 34.365 27.4304 34.1897 27.5214 33.9199L27.8947 32.8159C28.0004 32.5027 28.343 32.3256 28.6805 32.4044C29.7374 32.652 30.7362 33.0622 31.6639 33.6313C31.9274 33.7926 32.0483 34.0998 31.9467 34.3794L31.4616 35.7123C31.3789 35.9389 31.4357 36.1968 31.6189 36.3647C31.9703 36.6872 32.2843 37.0363 32.5584 37.4065C32.7284 37.636 33.0374 37.7287 33.313 37.637L34.4825 37.248C34.8032 37.141 35.1602 37.2864 35.3058 37.5825C35.7673 38.5184 36.0688 39.5291 36.1919 40.5551C36.2282 40.8586 36.036 41.1423 35.7305 41.2288L34.3899 41.6082C34.1363 41.6799 33.9499 41.89 33.9296 42.1421C33.8923 42.6024 33.8079 43.0613 33.6756 43.5112C33.5994 43.7705 33.7142 44.0489 33.9517 44.1995L35.0348 44.8873C35.3144 45.0646 35.4132 45.412 35.2667 45.6966C35.0339 46.1489 34.7618 46.5844 34.4543 46.9959C34.141 47.4148 33.7915 47.8083 33.4111 48.1707C33.175 48.3959 32.7971 48.416 32.5321 48.2159L31.5205 47.4518C31.2943 47.2809 30.9794 47.2672 30.7444 47.4209C30.3064 47.7071 29.8403 47.9454 29.3546 48.1339C29.0878 48.2374 28.9274 48.4969 28.958 48.7716L29.0922 49.9827C29.1277 50.303 28.9049 50.5936 28.5758 50.6595C27.5285 50.8688 26.4412 50.9143 25.3764 50.7927C25.043 50.7547 24.7879 50.4862 24.7831 50.1666L24.7655 48.9386C24.7616 48.6652 24.5736 48.423 24.2987 48.342C23.7929 48.1935 23.2976 47.9923 22.8214 47.737C22.5628 47.5984 22.2411 47.6427 22.0359 47.8426ZM27.3915 46.2199C33.5087 44.4004 32.1183 36.6561 25.6896 36.741C25.6206 36.742 25.5494 36.7528 25.4836 36.7724C19.37 38.5943 20.7595 46.3342 27.1853 46.2511C27.2541 46.2502 27.3257 46.2395 27.3915 46.2199Z" fill="#5B5B5B"/>
<path d="M4.01192 37.3053L3.19842 37.3107C2.97184 37.3123 2.78717 37.1467 2.76876 36.9313C2.71198 36.2588 2.7697 35.5898 2.94192 34.9347C2.99708 34.7246 3.20726 34.5836 3.43035 34.6115L4.24428 34.7133C4.43418 34.7369 4.62172 34.6392 4.70075 34.4707C4.83532 34.183 4.9992 33.9089 5.1889 33.6518C5.2893 33.5159 5.2895 33.3354 5.19789 33.1974L4.69778 32.4444C4.58663 32.2771 4.61804 32.0568 4.76976 31.9167C5.29259 31.4338 5.90011 31.033 6.55467 30.738C6.75356 30.6486 6.98809 30.7102 7.10476 30.8843L7.56953 31.5778C7.66799 31.7246 7.8539 31.7969 8.03262 31.7516C8.192 31.711 8.35443 31.6775 8.52052 31.6519C8.67633 31.6279 8.83154 31.6112 8.98582 31.6014C9.16403 31.59 9.31647 31.4717 9.37119 31.3085L9.64914 30.4799C9.71473 30.2848 9.91724 30.1619 10.1282 30.1869C10.8384 30.271 11.5342 30.4702 12.174 30.7725C12.3659 30.863 12.4588 31.0748 12.3908 31.2717L12.1117 32.0819C12.0544 32.2483 12.1101 32.43 12.2542 32.5344C12.5278 32.7323 12.7793 32.958 13.004 33.2081C13.1309 33.3495 13.3435 33.3886 13.5209 33.3044L14.2464 32.9597C14.4523 32.8618 14.6986 32.9323 14.8136 33.1186C15.1736 33.7027 15.4252 34.3362 15.5647 35.0117C15.6044 35.2033 15.5051 35.3993 15.3182 35.4834L14.4266 35.8843C14.2749 35.9525 14.1713 36.0968 14.1709 36.2558C14.1699 36.5612 14.1386 36.8619 14.0783 37.155C14.0409 37.3369 14.1358 37.5171 14.3083 37.5972L15.0399 37.937C15.2406 38.0301 15.331 38.2558 15.249 38.4575C14.9905 39.0956 14.621 39.6968 14.1621 40.2261C14.0263 40.3826 13.7957 40.4281 13.612 40.3324L12.8071 39.9123C12.6548 39.8327 12.4639 39.8471 12.3277 39.9546C12.0791 40.1511 11.8104 40.3256 11.5236 40.4748C11.3584 40.5607 11.2712 40.741 11.3042 40.9159L11.4552 41.7151C11.4944 41.9215 11.3652 42.1264 11.155 42.1928C10.821 42.2983 10.4777 42.3787 10.1298 42.4323C9.77562 42.4867 9.41749 42.5135 9.06126 42.5121C8.83974 42.5114 8.6567 42.3527 8.63587 42.1423L8.55597 41.3396C8.53818 41.1603 8.40075 41.0137 8.21579 40.9803C7.87127 40.918 7.53754 40.8212 7.22044 40.6925C7.04621 40.622 6.84204 40.6705 6.71813 40.8112L6.17151 41.431C6.02688 41.5947 5.77826 41.63 5.59445 41.5144C5.00908 41.1457 4.48811 40.6834 4.06116 40.1541C3.92769 39.9883 3.94523 39.7508 4.10375 39.601L4.71258 39.0251C4.848 38.8968 4.88347 38.7012 4.79813 38.5417C4.64117 38.2483 4.51508 37.9352 4.42508 37.6054C4.3762 37.4264 4.20644 37.3038 4.01192 37.3053ZM7.28215 38.9347C11.0004 40.8118 14.2532 36.6125 11.2637 33.7948C11.2315 33.7646 11.1935 33.7377 11.1535 33.7177C7.43575 31.8432 4.18464 36.0406 7.17192 38.8577C7.20394 38.8881 7.24209 38.9147 7.28215 38.9347Z" fill="#006F71" fill-opacity="0.5"/>
</g>
</g>
<defs>
<clipPath id="clip0_9691_4528">
<rect width="64" height="60.9524" fill="white" transform="matrix(-1 0 0 1 64 -0.00619507)"/>
</clipPath>
</defs>
</svg>
